<?xml version="1.0" encoding="UTF-8" standalone="no"?>
<!-- Created with Inkscape (http://www.inkscape.org/) -->

<svg
   xmlns:dc="http://purl.org/dc/elements/1.1/"
   xmlns:cc="http://creativecommons.org/ns#"
   xmlns:rdf="http://www.w3.org/1999/02/22-rdf-syntax-ns#"
   xmlns:svg="http://www.w3.org/2000/svg"
   xmlns="http://www.w3.org/2000/svg"
   xmlns:sodipodi="http://sodipodi.sourceforge.net/DTD/sodipodi-0.dtd"
   xmlns:inkscape="http://www.inkscape.org/namespaces/inkscape"
   width="565"
   height="445.02328"
   id="svg2"
   version="1.1"
   inkscape:version="0.48.2 r9819"
   sodipodi:docname="logo.svg">
  <defs
     id="defs4" />
  <sodipodi:namedview
     id="base"
     pagecolor="#ffffff"
     bordercolor="#666666"
     borderopacity="1.0"
     inkscape:pageopacity="0.0"
     inkscape:pageshadow="2"
     inkscape:zoom="0.29404046"
     inkscape:cx="359.83502"
     inkscape:cy="196.19251"
     inkscape:document-units="px"
     inkscape:current-layer="layer1"
     showgrid="false"
     inkscape:window-width="1235"
     inkscape:window-height="757"
     inkscape:window-x="0"
     inkscape:window-y="0"
     inkscape:window-maximized="0"
     showguides="true"
     inkscape:guide-bbox="true"
     fit-margin-top="15"
     fit-margin-left="15"
     fit-margin-right="15"
     fit-margin-bottom="15" />
  <metadata
     id="metadata7">
    <rdf:RDF>
      <cc:Work
         rdf:about="">
        <dc:format>image/svg+xml</dc:format>
        <dc:type
           rdf:resource="http://purl.org/dc/dcmitype/StillImage" />
        <dc:title></dc:title>
      </cc:Work>
    </rdf:RDF>
  </metadata>
  <g
     inkscape:label="Layer 1"
     inkscape:groupmode="layer"
     id="layer1"
     transform="translate(17.5,-624.85612)">
    <path
       style="fill:#8695c0;fill-opacity:1;stroke:#404040;stroke-width:15;stroke-linecap:butt;stroke-miterlimit:4;stroke-opacity:1;stroke-dasharray:none"
       d="M 23.96875,647.375 C 13.372177,647.90868 5,656.64125 5,667.375 l 0,100.00018 c 0,11.47228 8.92,19.99982 20,19.99982 l 80,0 c 11.08,0 20,8.92 20,20 l 0,80 c 0,11.08 -8.92,20 -20,20 l -80,0 c -11.08,0 -20,9.39949 -20,20.00018 l 0,99.99982 c 0,11.08 8.92,20 20,20 l 100,0 c 12.36674,0.3006 20,-8.92 20,-20 l 0,-80 c 0,-11.08 8.92,-20 20,-20 l 80,0 c 11.08,0 20,8.92 20,20 l 0,80 c 0,11.08 7.03206,20 20,20 l 100,0 c 11.08,0 20,-8.92 20,-20 l 0,-99.99982 c 0,-11.0258 8.92,-20.00018 20,-20.00018 l 80,0 c 11.08,0 20,-8.92 20,-20 l 0,-80 c 0,-11.08 -8.92,-20 -20,-20 l -80,0 c -11.08,0 -20,-8.97402 -20,-19.99982 L 405,667.375 c 0,-11.08 -8.92,-20 -20,-20 l -360,0 c -0.34625,0 -0.689425,-0.0172 -1.03125,0 z"
       id="rect3772"
       inkscape:connector-curvature="0"
       sodipodi:nodetypes="cscsssssscsscsssssscsscsssssscsssc" />
  </g>
</svg>
